<svg version="1.1" id="Layer_1" xmlns="http://www.w3.org/2000/svg" xmlns:xlink="http://www.w3.org/1999/xlink" x="0px" y="0px"
	 width="100%" viewBox="0 0 637 327" enable-background="new 0 0 637 327" xml:space="preserve">
<path fill="none" opacity="1.000000" stroke="#000000" stroke-linecap="round" stroke-linejoin="round" stroke-width="5.000000"
	d="
M317.000000,142.000000 
	C309.502594,136.923035 301.991974,131.983276 296.885742,124.073761 
	C294.439575,120.284645 291.908539,116.567619 290.065613,112.470482 
	C289.167755,110.474449 288.638977,107.786743 290.083282,106.070076 
	C294.717072,100.562431 297.476074,93.117363 305.480408,90.928307 
	C307.370270,90.411453 309.495819,89.989410 310.939911,90.634529 
	C315.505066,92.673920 319.503601,90.657494 321.819916,87.851349 
	C327.968536,80.402458 336.191376,81.758926 343.456909,82.800568 
	C354.608459,84.399368 360.175751,92.464668 360.969482,105.001930 
	C361.329437,110.687431 363.476013,116.518196 360.000000,122.000000 
	C362.093079,131.393372 360.771881,141.274765 364.012939,150.495453 
	C366.706329,158.157837 368.261841,166.119080 369.856049,174.029007 
	C370.713623,178.284027 369.016815,182.495621 367.062195,186.530136 
	C361.022278,198.997025 351.717194,209.020309 343.006927,219.505768 
	C340.129730,222.969315 337.495300,226.648499 334.458008,229.961517 
	C330.862518,233.883408 327.560944,237.936813 322.628571,240.727264 
	C318.026978,243.330566 314.500000,247.833344 310.500000,251.500015 
"/>
<path fill="none" opacity="1.000000" stroke="#000000" stroke-linecap="round" stroke-linejoin="round" stroke-width="5.000000"
	d="
M172.500000,146.000000 
	C169.833359,145.666443 167.166718,145.332886 164.165192,144.957443 
	C162.390167,135.434921 159.376785,125.814796 160.505951,116.029533 
	C161.237701,109.688286 165.396149,104.121101 170.061798,99.563263 
	C173.369797,96.331703 177.918335,97.601273 182.000580,97.564308 
	C182.862869,97.556488 183.732559,98.367928 184.626160,98.815567 
	C184.109421,102.183945 183.614594,105.510605 182.751907,108.426605 
	C181.120636,113.940575 183.722321,118.060532 185.556915,122.476357 
	C188.437286,129.409393 190.242188,136.388885 191.529037,143.909470 
	C192.987869,152.435165 189.189453,159.031723 187.948792,166.491486 
	C186.501358,175.194611 184.817703,183.865784 182.964600,192.492401 
	C180.182526,205.443497 173.952881,216.901047 166.992645,227.995392 
	C160.564072,238.242279 152.946594,247.429626 143.000000,254.500000 
"/>
<path fill="none" opacity="1.000000" stroke="#000000" stroke-linecap="round" stroke-linejoin="round" stroke-width="5.000000"
	d="
M419.000000,133.000000 
	C416.395660,134.639938 413.423553,134.592819 410.516083,135.093338 
	C403.854828,136.240097 398.035645,140.367996 391.007782,140.677155 
	C389.401459,140.747818 387.620361,142.548248 386.424408,144.452515 
	C383.409027,149.253830 381.762115,154.505096 381.600983,160.002960 
	C381.366730,167.998215 380.106873,175.919479 380.880554,184.011414 
	C381.999176,195.711349 383.309631,207.375748 385.016296,218.997604 
	C386.266296,227.509842 387.389374,236.056458 389.104065,244.478821 
	C390.131348,249.524658 389.100494,255.031113 392.880219,259.599121 
	C394.664337,261.755341 396.545013,262.771057 399.002716,262.965912 
	C406.495239,263.559875 413.998627,264.022186 421.500763,264.487762 
	C424.051208,264.646027 426.243958,261.912933 429.000000,263.500000 
"/>
<path fill="none" opacity="1.000000" stroke="#000000" stroke-linecap="round" stroke-linejoin="round" stroke-width="5.000000"
	d="
M573.000000,188.500000 
	C573.702881,193.743546 571.954102,197.285919 567.069824,200.120346 
	C555.260498,206.973465 544.251587,215.065918 533.420166,223.396240 
	C531.840393,224.611237 531.464172,226.187210 530.575012,227.548981 
	C520.778442,242.552582 505.866211,250.620483 489.924652,256.805817 
	C482.489777,259.690521 475.576965,263.153931 469.000000,267.500000 
"/>
<path fill="none" opacity="1.000000" stroke="#000000" stroke-linecap="round" stroke-linejoin="round" stroke-width="5.000000"
	d="
M573.500000,194.000000 
	C576.659119,194.245728 578.873718,192.315247 580.963379,190.458755 
	C583.777710,187.958359 586.693481,185.434982 588.922974,182.442642 
	C593.210754,176.687805 599.501038,174.119644 605.497314,170.994904 
	C607.428833,169.988358 609.652039,169.359589 610.981628,167.486954 
	C613.158020,164.421509 611.876465,160.839417 606.968201,157.547440 
	C601.706299,154.018295 595.488525,153.325516 589.519226,154.140594 
	C579.209351,155.548294 568.546448,156.997253 560.578003,164.581955 
	C552.691345,172.088852 542.163879,173.828888 532.979553,178.459396 
	C527.256470,181.344788 521.335632,183.838501 515.492737,186.483932 
	C515.216125,186.609177 514.803406,186.588348 514.504333,186.487167 
	C504.553253,183.121048 495.265930,189.272156 485.499878,188.501633 
	C485.334259,188.488556 485.166656,188.500000 485.000000,188.500000 
"/>
<path fill="none" opacity="1.000000" stroke="#000000" stroke-linecap="round" stroke-linejoin="round" stroke-width="3.000000"
	d="
M452.000000,116.500000 
	C442.735687,111.110176 434.966858,115.660049 427.596313,120.642494 
	C425.205231,122.258858 422.966034,124.460648 421.308075,127.391434 
	C418.552338,132.262817 421.063629,136.297974 422.091278,140.477554 
	C425.270813,153.409088 428.493347,166.315750 430.559387,179.490692 
	C430.946350,181.958344 431.459717,184.259033 430.000000,186.500000 
"/>
<path fill="none" opacity="1.000000" stroke="#000000" stroke-linecap="round" stroke-linejoin="round" stroke-width="6.000000"
	d="
M241.500000,114.000000 
	C236.019119,115.606560 230.108704,115.546730 225.421326,119.915588 
	C218.834091,126.055237 211.640854,131.817734 207.219391,139.624268 
	C203.676910,145.878891 200.956772,152.913025 200.996277,160.500015 
	C201.024307,165.880966 199.336624,171.044479 199.383759,176.501007 
	C199.498550,189.790604 202.165100,202.653656 205.067535,215.484726 
	C206.332214,221.075653 208.376801,226.487305 209.987701,232.003601 
	C211.577026,237.445938 214.764343,242.013504 218.066055,246.450851 
	C219.956696,248.991760 220.281921,251.329300 220.173355,254.505920 
	C219.826172,264.663635 221.322159,274.805359 221.156616,285.002533 
	C221.134277,286.378632 221.553177,288.039429 221.429260,289.493988 
	C221.202744,292.153137 222.720490,294.368317 224.539230,294.852722 
	C236.441635,298.022736 246.902054,305.432068 259.492493,306.582275 
	C261.946838,306.806488 264.237152,307.437225 266.516357,306.026428 
	C267.072937,305.681915 267.862000,305.448883 268.495758,305.532288 
	C280.516327,307.114410 293.434967,303.839020 303.051514,297.073212 
	C305.016388,295.690826 306.248749,294.107117 306.989258,291.996246 
	C309.032654,286.171570 311.827301,280.708191 310.725250,273.963196 
	C310.022156,269.659760 311.761810,265.010437 311.941772,260.497681 
	C312.251129,252.739288 308.402649,249.266098 300.513550,248.379349 
	C295.109406,247.771896 289.833344,248.725067 284.500000,248.500000 
"/>
<path fill="none" opacity="1.000000" stroke="#000000" stroke-linecap="round" stroke-linejoin="round" stroke-width="5.000000"
	d="
M81.000000,179.500000 
	C85.147263,175.817825 82.238289,171.231720 81.698082,167.544235 
	C80.736656,160.981476 80.261108,154.119965 77.038918,147.979584 
	C74.997269,144.088882 73.400482,139.966629 71.442856,136.028412 
	C71.055374,135.248901 70.103394,134.791565 69.034775,134.404083 
	C59.873310,131.082199 50.999310,135.817047 49.054569,145.510941 
	C48.201214,149.764679 44.382626,152.123871 43.277447,156.443054 
	C41.577953,163.084900 39.978546,169.435623 39.557526,176.473526 
	C39.094639,184.211319 39.807850,191.579056 41.064468,198.989075 
	C44.180359,217.362747 46.915703,235.876663 58.420155,251.558578 
	C60.901371,254.940765 63.799137,257.868469 66.405952,261.076416 
	C67.639168,262.593994 68.744942,262.915436 70.493172,263.074860 
	C73.121475,263.314484 75.852257,263.740936 77.977837,265.526367 
	C79.784126,267.043640 82.063835,267.233765 83.415115,265.913147 
	C88.654770,260.792236 96.591492,261.558441 101.698608,256.687103 
	C103.920601,257.895966 104.611473,259.449463 104.507980,261.500397 
	C104.205444,267.496124 104.777435,273.491058 104.111732,279.512360 
	C103.678993,283.426331 103.258743,287.690125 106.500000,291.000000 
"/>
<path fill="none" opacity="1.000000" stroke="#000000" stroke-linecap="round" stroke-linejoin="round" stroke-width="6.000000"
	d="
M67.500000,263.500000 
	C65.897903,266.359039 66.258232,269.376068 66.427010,272.503937 
	C66.822037,279.824951 66.783112,287.168243 67.012611,294.499603 
	C67.304901,303.836975 69.692505,304.461853 76.488998,306.047180 
	C83.937614,307.784546 91.381706,309.924500 99.003418,310.107788 
	C107.488495,310.311829 116.079857,309.968323 124.464470,308.754578 
	C128.339462,308.193634 131.916779,305.134857 135.463150,302.940430 
	C137.120895,301.914703 138.655853,300.765137 140.386383,299.796936 
	C143.274185,298.181152 145.848099,295.567322 145.514145,291.498840 
	C144.638870,280.835632 143.729950,270.173096 143.063309,259.496033 
	C142.864670,256.314575 141.488342,254.793335 138.499130,254.509186 
	C134.611526,254.139648 130.744186,252.778885 126.941261,255.415268 
	C125.115555,256.680908 122.666664,256.273804 120.500000,255.500000 
"/>
<path fill="none" opacity="1.000000" stroke="#000000" stroke-linecap="round" stroke-linejoin="round" stroke-width="6.000000"
	d="
M450.500000,204.500000 
	C450.612274,211.017914 447.047516,216.657425 446.136536,222.983658 
	C445.272858,228.981094 446.049652,235.078751 444.553711,241.013535 
	C444.035309,243.070206 445.105255,244.820694 446.451263,246.538193 
	C450.724396,251.990738 456.021149,256.176697 462.047668,259.411224 
	C463.398895,260.136444 464.474518,260.968994 465.500000,262.000000 
"/>
<path fill="none" opacity="1.000000" stroke="#000000" stroke-linecap="round" stroke-linejoin="round" stroke-width="5.000000"
	d="
M102.000000,201.500000 
	C103.898956,203.791245 103.633293,206.754852 102.824722,208.934998 
	C101.556747,212.353806 102.343880,215.667725 102.010109,219.001007 
	C101.047684,228.612305 107.274040,235.815369 110.635139,243.944122 
	C111.557869,246.175705 113.229492,247.926010 112.017258,250.508102 
	C111.889030,250.781235 111.879799,251.230179 112.017479,251.490768 
	C115.989784,259.009705 112.890007,266.828308 112.965813,274.500336 
	C113.067253,284.767609 112.570259,295.065552 115.964722,305.012054 
	C116.389671,306.257233 116.333328,307.666656 116.500000,309.000000 
"/>
<path fill="none" opacity="1.000000" stroke="#000000" stroke-linecap="round" stroke-linejoin="round" stroke-width="5.000000"
	d="
M488.000000,147.500000 
	C485.828979,145.524750 485.688232,143.146332 486.483978,140.495193 
	C487.438995,137.313278 488.525269,134.108063 489.696411,131.075867 
	C492.147491,124.729744 489.728821,119.637909 486.936066,114.534988 
	C484.944824,110.896637 482.380463,107.350761 478.892639,105.171844 
	C476.835754,103.886879 477.216766,102.058617 477.180847,100.993896 
	C477.001404,95.675446 476.385345,90.282120 477.546417,85.010223 
	C478.160797,82.220596 476.919708,79.712181 476.853363,77.003593 
	C476.644623,68.478676 476.460754,60.033432 477.265839,51.477962 
	C477.819641,45.592819 476.131165,39.503670 475.510590,33.498901 
	C474.959961,28.170803 474.249695,22.840528 474.096069,17.497236 
	C474.007172,14.406773 478.380371,11.365952 481.999359,11.515583 
	C489.699646,11.833957 495.222656,15.164906 498.602356,22.452534 
	C501.296722,28.262365 502.334473,34.424652 502.797363,40.515400 
	C503.322571,47.426640 504.731537,54.168804 505.671204,60.976368 
	C506.662842,68.160843 507.186493,75.307777 506.925446,82.497292 
	C506.753204,87.242477 507.674316,91.837593 507.931213,96.503784 
	C508.315857,103.490326 510.359009,110.325523 508.790894,117.563026 
	C508.257568,120.024544 510.261108,123.316986 510.648438,126.481834 
	C512.602539,142.448517 514.004883,158.460754 514.845825,174.508087 
	C515.028442,177.991989 515.433167,181.251694 516.500000,184.500000 
"/>
<path fill="none" opacity="1.000000" stroke="#000000" stroke-linecap="round" stroke-linejoin="round" stroke-width="5.000000"
	d="
M276.000000,95.500000 
	C263.657471,91.813065 250.572769,95.896194 243.594742,106.065018 
	C241.716324,108.802361 240.500290,111.739807 243.345917,115.613205 
	C251.330276,126.481361 254.529846,139.280014 255.944305,152.505951 
	C256.457245,157.302246 256.267334,162.170227 256.527100,166.998535 
	C256.662201,169.509277 256.196777,171.815979 255.000000,174.000000 
"/>
<path fill="none" opacity="1.000000" stroke="#000000" stroke-linecap="round" stroke-linejoin="round" stroke-width="4.000000"
	d="
M319.000000,89.500000 
	C315.205750,79.403862 311.292969,77.139481 299.999390,78.495018 
	C299.670776,78.534454 299.329498,78.533241 299.000549,78.495186 
	C286.753113,77.078201 280.991425,84.596901 277.045532,94.518112 
	C276.702118,95.381531 276.785278,96.556892 277.032867,97.491295 
	C279.860016,108.161392 281.515381,118.997589 282.606354,129.989441 
	C283.615417,140.155670 284.727081,150.309540 285.539490,160.496857 
	C285.855927,164.464706 289.444885,167.368530 289.500000,171.500000 
"/>
<path fill="none" opacity="1.000000" stroke="#000000" stroke-linecap="round" stroke-linejoin="round" stroke-width="3.000000"
	d="
M445.000000,258.500000 
	C438.559509,274.154633 431.804413,289.716644 430.991058,306.999573 
	C430.883575,309.282410 431.865540,311.155945 433.000000,313.000000 
"/>
<path fill="none" opacity="1.000000" stroke="#000000" stroke-linecap="round" stroke-linejoin="round" stroke-width="5.000000"
	d="
M279.000000,249.500000 
	C278.197876,250.152054 277.090240,250.875305 277.540344,251.983612 
	C280.869293,260.180542 277.566803,268.369415 277.241638,276.489655 
	C276.929016,284.297607 277.964569,291.673157 280.146149,298.956207 
	C280.698853,300.801331 281.514557,302.526337 281.500000,304.500000 
"/>
<path fill="none" opacity="1.000000" stroke="#000000" stroke-linecap="round" stroke-linejoin="round" stroke-width="6.000000"
	d="
M380.500000,296.500000 
	C388.705444,300.814484 395.896393,306.740814 404.425262,310.662537 
	C413.663635,314.910522 422.464142,315.264252 432.561584,313.986694 
	C442.759918,312.696350 449.559021,306.268280 457.902344,302.294952 
	C460.424835,301.093658 462.200653,297.798309 463.057770,294.515076 
	C464.334778,289.623535 465.656860,284.691071 467.586609,280.035919 
	C470.014923,274.178070 469.512299,268.634613 467.250000,263.000000 
"/>
<path fill="none" opacity="1.000000" stroke="#000000" stroke-linecap="round" stroke-linejoin="round" stroke-width="5.000000"
	d="
M477.500000,104.500000 
	C474.319092,108.000969 469.617188,105.471558 465.923523,107.349579 
	C465.018005,107.809990 463.579376,108.147400 462.538971,108.591354 
	C453.882294,112.285080 451.836243,116.141220 452.457764,125.502808 
	C453.142975,135.823837 453.517181,146.165878 453.994354,156.500259 
	C454.356018,164.332275 454.789215,172.163956 454.962433,180.000824 
	C455.109375,186.650238 454.228058,187.639160 447.496979,187.930099 
	C443.298828,188.111557 441.453827,190.511734 440.547668,194.012344 
	C439.960693,196.280014 439.833344,198.666672 439.500000,201.000000 
"/>
<path fill="none" opacity="1.000000" stroke="#000000" stroke-linecap="round" stroke-linejoin="round" stroke-width="5.000000"
	d="
M159.500000,115.500000 
	C154.194885,114.430412 148.755859,114.620613 143.524704,115.216751 
	C139.699890,115.652626 136.814270,118.988663 136.064377,123.012001 
	C134.431519,131.772644 131.998062,140.349091 130.241165,149.048706 
	C129.383957,153.293289 128.840622,157.925400 129.408829,162.511292 
	C129.823013,165.854065 129.973587,169.076462 128.299057,172.640503 
	C126.886566,175.646835 127.453773,180.026886 130.509064,183.033508 
	C130.427887,183.336349 130.337601,183.667816 130.250198,184.000046 
	C127.654625,193.867279 119.632904,193.304321 112.000122,193.504517 
	C110.205933,193.551590 108.187035,192.986786 107.006187,195.003616 
	C104.158615,199.867126 99.806931,201.390839 94.504616,200.473312 
	C89.160103,199.548492 85.217484,196.480606 82.232971,192.011368 
	C80.091202,188.804138 76.741005,186.002563 79.250000,181.500000 
"/>
<path fill="none" opacity="1.000000" stroke="#000000" stroke-linecap="round" stroke-linejoin="round" stroke-width="3.000000"
	d="
M432.500000,255.000000 
	C433.287384,260.686218 429.249329,264.912231 427.811951,269.946320 
	C425.155548,279.249847 420.479736,287.890839 418.334381,297.462891 
	C417.704254,300.274475 417.625671,302.799530 418.000000,305.500000 
"/>
<path fill="none" opacity="1.000000" stroke="#000000" stroke-linecap="round" stroke-linejoin="round" stroke-width="6.000000"
	d="
M503.500000,143.500000 
	C499.947632,145.589859 496.590790,147.681641 491.983551,147.139938 
	C487.990875,146.670502 484.514862,150.883240 484.536316,155.499832 
	C484.575836,164.000427 484.835297,172.499969 484.997437,181.000046 
	C485.016479,181.999680 485.176300,183.037964 484.970551,183.993652 
	C483.888275,189.020340 485.292419,195.953751 479.874664,198.197357 
	C472.922974,201.076233 465.135101,204.912704 457.500000,199.000000 
"/>
<path fill="none" opacity="1.000000" stroke="#000000" stroke-linecap="round" stroke-linejoin="round" stroke-width="5.000000"
	d="
M294.500000,102.000000 
	C298.302032,113.315704 307.840881,115.844170 318.010406,116.899796 
	C323.155243,117.433830 325.810028,115.022224 326.385681,109.986931 
	C326.600983,108.103813 327.826447,106.764603 328.000000,105.000000 
"/>
<path fill="none" opacity="1.000000" stroke="#000000" stroke-linecap="round" stroke-linejoin="round" stroke-width="4.000000"
	d="
M71.000000,135.000000 
	C73.053291,131.755768 75.656593,128.964874 77.669037,125.601128 
	C83.572510,115.733604 94.778137,118.901543 100.507462,124.992989 
	C101.529198,126.079308 100.908768,127.337959 100.972534,128.501511 
	C101.520363,138.498886 102.116737,148.496017 102.458275,158.501419 
	C102.679901,164.993866 102.464554,171.500336 102.527046,177.999741 
	C102.541168,179.467377 102.036247,180.563156 101.000000,181.500000 
"/>
<path fill="none" opacity="1.000000" stroke="#000000" stroke-linecap="round" stroke-linejoin="round" stroke-width="4.000000"
	d="
M136.000000,121.500000 
	C133.133087,120.970268 132.336700,118.150658 130.548248,116.449287 
	C125.584381,111.727165 115.249237,110.361763 109.506706,114.010551 
	C105.455505,116.584671 102.894150,120.480698 100.500000,124.500000 
"/>
<path fill="none" opacity="1.000000" stroke="#000000" stroke-linecap="round" stroke-linejoin="round" stroke-width="8.000000"
	d="
M268.500000,267.500000 
	C266.871460,279.980499 267.265015,292.487976 268.000000,305.000000 
"/>
<path fill="none" opacity="1.000000" stroke="#000000" stroke-linecap="round" stroke-linejoin="round" stroke-width="4.000000"
	d="
M399.000000,155.500000 
	C400.884552,161.121826 402.491760,166.657700 406.250549,171.686462 
	C409.165710,175.586594 409.825653,181.169327 411.504944,185.998291 
	C411.972504,187.342880 412.203461,188.907898 413.055298,189.955002 
	C415.665588,193.163681 417.515686,198.146683 422.002777,198.186325 
	C425.135162,198.214020 428.679901,197.232864 432.000000,196.500000 
"/>
<path fill="none" opacity="1.000000" stroke="#000000" stroke-linecap="round" stroke-linejoin="round" stroke-width="4.000000"
	d="
M163.000000,146.000000 
	C159.510345,152.742950 157.124588,159.546982 157.126205,167.500076 
	C157.126999,171.332962 152.716843,174.991287 151.133575,179.052078 
	C149.709366,182.704865 147.445648,183.383148 144.007889,183.616333 
	C140.970215,183.822388 138.000153,183.443436 134.999924,183.496048 
	C133.667007,183.519424 132.333328,183.500000 131.000000,183.500000 
"/>
<path fill="none" opacity="1.000000" stroke="#000000" stroke-linecap="round" stroke-linejoin="round" stroke-width="6.000000"
	d="
M393.500000,263.000000 
	C388.508026,266.549866 388.734924,272.649231 386.638214,277.559021 
	C384.087158,283.532806 382.587769,289.950623 382.000000,296.500000 
"/>
<path fill="none" opacity="1.000000" stroke="#000000" stroke-linecap="round" stroke-linejoin="round" stroke-width="4.000000"
	d="
M119.500015,192.000000 
	C120.166679,190.500000 121.019768,189.053421 121.467575,187.490707 
	C123.348930,180.925232 118.781693,175.941376 111.996689,176.978317 
	C110.118584,177.265366 108.465324,177.914383 108.592644,179.994324 
	C108.674263,181.327591 107.879379,182.042618 107.458313,182.981293 
	C105.789932,186.700577 105.864098,190.062057 109.000000,193.000000 
"/>
<path fill="none" opacity="1.000000" stroke="#000000" stroke-linecap="round" stroke-linejoin="round" stroke-width="4.000000"
	d="
M463.000000,271.500000 
	C457.222595,280.522736 454.966309,290.803436 452.585876,301.020020 
	C452.427429,301.699921 453.500000,302.666687 454.000000,303.500000 
"/>
<path fill="none" opacity="1.000000" stroke="#000000" stroke-linecap="round" stroke-linejoin="round" stroke-width="4.000000"
	d="
M477.000000,198.500000 
	C476.166382,194.787949 477.199646,190.711960 474.043701,187.457611 
	C467.631500,180.845505 463.568817,181.493362 459.986450,189.994293 
	C459.757263,190.538177 459.333344,191.000015 459.000000,191.500015 
"/>
<path fill="none" opacity="1.000000" stroke="#000000" stroke-linecap="round" stroke-linejoin="round" stroke-width="10.000000"
	d="
M264.500000,254.000000 
	C255.627350,256.192993 246.739883,258.277222 237.499863,258.004578 
	C234.886627,257.927460 232.581833,258.110962 230.334702,255.650986 
	C228.226334,253.342911 225.280350,251.077560 221.500000,251.500000 
"/>
<path fill="none" opacity="1.000000" stroke="#000000" stroke-linecap="round" stroke-linejoin="round" stroke-width="5.000000"
	d="
M354.500000,121.250000 
	C356.091248,118.870903 356.058990,117.466728 352.953339,115.576683 
	C345.546936,111.069283 337.850311,107.225662 329.588928,104.252853 
	C324.029419,102.252296 320.072449,97.300346 318.750000,91.000000 
"/>
<path fill="none" opacity="1.000000" stroke="#000000" stroke-linecap="round" stroke-linejoin="round" stroke-width="5.000000"
	d="
M305.000000,256.500000 
	C301.813354,258.561584 302.945160,262.282806 302.271942,265.065796 
	C301.120087,269.827454 301.513092,275.001801 301.571259,279.999176 
	C301.596558,282.172668 302.858368,284.015808 305.000000,285.000000 
"/>
<path fill="none" opacity="1.000000" stroke="#000000" stroke-linecap="round" stroke-linejoin="round" stroke-width="5.000000"
	d="
M206.500000,144.500000 
	C209.489990,147.172104 213.130569,148.646759 216.989883,148.362579 
	C219.994431,148.141357 221.344467,149.461044 223.059723,151.448456 
	C227.579666,156.685623 227.142929,163.831787 230.434875,169.537567 
	C232.138596,172.490555 232.990494,175.921997 234.531631,178.984070 
	C240.120407,190.088440 250.310318,191.120377 258.560577,181.428833 
	C258.133575,179.985779 257.722687,178.482864 257.242493,177.002441 
	C256.581512,174.964554 255.279984,173.935837 252.999649,173.952515 
	C251.013733,173.967056 249.899124,174.856323 248.976334,176.486603 
	C247.152756,179.708313 247.176514,183.050980 248.000000,186.500000 
"/>
<path fill="none" opacity="1.000000" stroke="#000000" stroke-linecap="round" stroke-linejoin="round" stroke-width="5.000000"
	d="
M343.500000,122.500000 
	C339.581451,124.155090 337.975067,127.986351 335.316315,130.928955 
	C336.478912,133.063232 337.871857,133.366867 340.017822,132.546646 
	C345.724182,130.365555 350.379791,126.895271 354.000000,122.000000 
"/>
<path fill="none" opacity="1.000000" stroke="#000000" stroke-linecap="round" stroke-linejoin="round" stroke-width="5.000000"
	d="
M506.000000,86.000000 
	C497.043213,82.447647 487.839294,82.293137 478.500000,84.000000 
"/>
<path fill="none" opacity="1.000000" stroke="#000000" stroke-linecap="round" stroke-linejoin="round" stroke-width="3.000000"
	d="
M139.000000,274.500000 
	C134.815018,283.018524 135.005554,291.705353 138.000000,300.500000 
"/>
<path fill="none" opacity="1.000000" stroke="#000000" stroke-linecap="round" stroke-linejoin="round" stroke-width="4.000000"
	d="
M227.500000,164.000000 
	C218.833328,165.493042 210.166672,163.642792 201.500000,164.000000 
"/>
<path fill="none" opacity="1.000000" stroke="#000000" stroke-linecap="round" stroke-linejoin="round" stroke-width="6.000000"
	d="
M334.500000,143.500000 
	C329.315521,143.114410 324.093719,141.572372 318.989380,144.018204 
	C317.050171,147.346054 319.435883,151.092972 318.008179,154.503418 
	C315.473297,160.558609 310.950775,164.460602 305.013031,167.030106 
	C299.840912,169.268311 294.323639,170.302322 289.000000,172.000000 
"/>
<path fill="none" opacity="1.000000" stroke="#000000" stroke-linecap="round" stroke-linejoin="round" stroke-width="4.000000"
	d="
M317.000000,161.500000 
	C319.900391,164.605896 320.415802,168.793518 322.041260,172.481812 
	C324.241211,177.473450 325.983032,182.884186 331.500000,185.500000 
"/>
<path fill="none" opacity="1.000000" stroke="#000000" stroke-linecap="round" stroke-linejoin="round" stroke-width="5.000000"
	d="
M503.000000,52.000000 
	C494.771088,49.056164 486.367371,50.482468 478.000000,51.000000 
"/>
<path fill="none" opacity="1.000000" stroke="#000000" stroke-linecap="round" stroke-linejoin="round" stroke-width="6.000000"
	d="
M131.000000,167.500000 
	C135.884872,167.402710 140.562439,167.455170 143.062424,172.971710 
	C144.689224,176.561447 143.643829,179.715530 142.500000,183.000000 
"/>
<path fill="none" opacity="1.000000" stroke="#000000" stroke-linecap="round" stroke-linejoin="round" stroke-width="4.000000"
	d="
M100.500000,182.500000 
	C89.540672,182.500000 89.546234,182.500534 88.490677,193.499100 
	C88.394058,194.505829 88.166672,195.500000 88.000000,196.500000 
"/>
<path fill="none" opacity="1.000000" stroke="#000000" stroke-linecap="round" stroke-linejoin="round" stroke-width="5.000000"
	d="
M278.000000,187.000000 
	C276.742126,192.317154 272.314453,196.201157 271.444580,201.741302 
	C271.026306,204.405289 271.549194,207.470169 269.000000,209.500000 
"/>
<path fill="none" opacity="1.000000" stroke="#000000" stroke-linecap="round" stroke-linejoin="round" stroke-width="5.000000"
	d="
M443.500000,253.500000 
	C443.211945,255.622986 444.588593,256.938324 446.024475,257.965790 
	C451.759979,262.069977 458.290527,264.745331 464.465179,268.064758 
	C466.030823,268.906464 467.166656,267.743958 468.500000,268.000000 
"/>
<path fill="none" opacity="1.000000" stroke="#000000" stroke-linecap="round" stroke-linejoin="round" stroke-width="3.000000"
	d="
M523.000000,201.500000 
	C524.914185,207.140518 525.404114,213.184784 528.325745,218.594101 
	C529.113892,220.053299 530.045837,221.242188 531.000000,222.500000 
"/>
<path fill="none" opacity="1.000000" stroke="#000000" stroke-linecap="round" stroke-linejoin="round" stroke-width="8.000000"
	d="
M313.500000,160.500000 
	C312.333344,159.666656 310.835510,159.066605 310.056305,157.960342 
	C306.320618,152.656555 301.427368,152.654480 295.995209,154.485764 
	C295.196442,154.755020 294.333344,154.833328 293.500000,154.999985 
"/>
<path fill="none" opacity="1.000000" stroke="#000000" stroke-linecap="round" stroke-linejoin="round" stroke-width="3.000000"
	d="
M108.500000,270.500000 
	C109.241226,277.588654 108.812462,284.490417 107.214500,291.548553 
	C105.973236,297.031250 107.688675,302.860809 108.500000,308.500000 
"/>
<path fill="none" opacity="1.000000" stroke="#000000" stroke-linecap="round" stroke-linejoin="round" stroke-width="3.000000"
	d="
M427.500000,285.500000 
	C425.249237,293.015503 423.986206,301.001373 417.500000,306.500000 
"/>
<path fill="none" opacity="1.000000" stroke="#000000" stroke-linecap="round" stroke-linejoin="round" stroke-width="5.000000"
	d="
M43.000000,161.500000 
	C47.019051,162.299393 50.129574,165.193054 54.449093,165.839935 
	C57.053337,166.229919 60.162167,170.023026 60.260967,173.007919 
	C60.447849,178.653885 64.731163,181.896225 66.727005,186.399384 
	C68.907448,191.319092 71.781570,191.292587 76.500000,188.000000 
"/>
<path fill="none" opacity="1.000000" stroke="#000000" stroke-linecap="round" stroke-linejoin="round" stroke-width="5.000000"
	d="
M382.500000,163.500000 
	C383.666656,164.000000 385.036682,164.258362 385.966034,165.040375 
	C390.922729,169.211090 396.361969,168.770935 402.000000,167.000000 
"/>
<path fill="none" opacity="1.000000" stroke="#000000" stroke-linecap="round" stroke-linejoin="round" stroke-width="4.000000"
	d="
M60.000000,176.500000 
	C53.650051,176.517624 47.286411,176.275146 41.000000,177.500000 
"/>
<path fill="none" opacity="1.000000" stroke="#000000" stroke-linecap="round" stroke-linejoin="round" stroke-width="5.000000"
	d="
M508.000000,118.000000 
	C502.833344,117.500000 497.634399,117.195419 492.524414,116.352074 
	C491.358643,116.159683 490.500000,116.373299 489.500000,116.500000 
"/>
<path fill="none" opacity="1.000000" stroke="#000000" stroke-linecap="round" stroke-linejoin="round" stroke-width="5.000000"
	d="
M435.500000,251.500000 
	C430.875275,255.925629 424.432190,256.345581 418.962433,258.920197 
	C417.039886,259.825134 414.943939,260.286102 413.500000,262.000000 
"/>
<path fill="none" opacity="1.000000" stroke="#000000" stroke-linecap="round" stroke-linejoin="round" stroke-width="3.000000"
	d="
M501.500000,128.500000 
	C499.118317,135.152344 494.205505,140.328201 491.000000,146.500000 
"/>
<path fill="none" opacity="1.000000" stroke="#000000" stroke-linecap="round" stroke-linejoin="round" stroke-width="3.000000"
	d="
M158.500000,189.500000 
	C158.536713,191.154434 158.928452,192.495407 159.838547,194.092026 
	C162.155319,198.156372 165.616577,201.666046 166.500000,206.500000 
"/>
<path fill="none" opacity="1.000000" stroke="#000000" stroke-linecap="round" stroke-linejoin="round" stroke-width="8.000000"
	d="
M288.500000,172.500000 
	C285.691925,171.725983 282.802429,171.195312 279.974274,170.628372 
	C271.009125,168.831146 266.653656,172.355576 265.000000,182.000000 
"/>
<path fill="none" opacity="1.000000" stroke="#000000" stroke-linecap="round" stroke-linejoin="round" stroke-width="3.000000"
	d="
M98.000000,201.500000 
	C98.444130,206.117691 95.586037,209.810623 94.495766,213.998901 
	C94.190178,215.172791 93.833328,216.333328 93.499992,217.500000 
"/>
<path fill="none" opacity="1.000000" stroke="#000000" stroke-linecap="round" stroke-linejoin="round" stroke-width="9.000000"
	d="
M516.000000,187.000000 
	C517.854736,191.496948 518.870483,195.987320 518.128601,201.018967 
	C517.453796,205.596222 519.000732,210.123322 520.500000,214.500000 
"/>
<path fill="none" opacity="1.000000" stroke="#000000" stroke-linecap="round" stroke-linejoin="round" stroke-width="6.000000"
	d="
M113.500000,248.000000 
	C118.947533,248.324066 123.966507,249.933823 128.500000,253.000000 
"/>
<path fill="none" opacity="1.000000" stroke="#000000" stroke-linecap="round" stroke-linejoin="round" stroke-width="4.000000"
	d="
M453.500000,169.500000 
	C449.457947,169.373230 445.767761,170.944626 442.030823,172.099686 
	C440.672668,172.519470 439.666656,172.408569 438.500000,172.000000 
"/>
<path fill="none" opacity="1.000000" stroke="#000000" stroke-linecap="round" stroke-linejoin="round" stroke-width="5.000000"
	d="
M277.000000,252.000000 
	C272.913086,253.154022 272.695618,256.823883 272.082001,260.015747 
	C271.695496,262.026337 271.596375,264.004730 270.000000,265.500000 
"/>
<path fill="none" opacity="1.000000" stroke="#000000" stroke-linecap="round" stroke-linejoin="round" stroke-width="3.000000"
	d="
M151.000000,182.000000 
	C157.965164,187.742462 165.802109,192.657822 169.500000,201.500000 
"/>
<path fill="none" opacity="1.000000" stroke="#000000" stroke-linecap="round" stroke-linejoin="round" stroke-width="5.000000"
	d="
M476.500000,166.500000 
	C472.046692,168.495682 467.064453,168.022964 462.500000,169.500000 
"/>
<path fill="none" opacity="1.000000" stroke="#000000" stroke-linecap="round" stroke-linejoin="round" stroke-width="3.000000"
	d="
M98.500000,264.500000 
	C96.000000,265.500000 93.463959,266.419800 91.010155,267.522583 
	C88.560760,268.623413 86.566162,267.486603 84.500000,266.500000 
"/>
<path fill="none" opacity="1.000000" stroke="#000000" stroke-linecap="round" stroke-linejoin="round" stroke-width="3.000000"
	d="
M50.000000,151.500000 
	C51.178101,155.997040 54.068153,160.050232 53.500000,165.000000 
"/>
<path fill="none" opacity="1.000000" stroke="#000000" stroke-linecap="round" stroke-linejoin="round" stroke-width="8.000000"
	d="
M457.500000,193.500000 
	C458.350739,199.122726 453.401764,200.878952 450.870728,204.182861 
	C446.710358,202.158630 442.301208,203.491028 438.410095,201.149414 
	C435.022461,199.110764 431.755066,198.149017 433.351532,192.954361 
	C434.232544,190.087540 430.756775,186.244385 428.500000,186.499969 
	C425.737732,186.812805 423.748840,189.704437 423.993561,193.000473 
	C424.097321,194.398010 423.667694,195.916412 425.000000,197.000000 
"/>
<path fill="none" opacity="1.000000" stroke="#000000" stroke-linecap="round" stroke-linejoin="round" stroke-width="6.000000"
	d="
M279.500000,237.500000 
	C282.447662,241.851868 287.952820,243.262604 291.000000,247.500000 
"/>
<path fill="none" opacity="1.000000" stroke="#000000" stroke-linecap="round" stroke-linejoin="round" stroke-width="4.000000"
	d="
M291.500000,137.500000 
	C295.897583,139.003891 300.249023,139.307770 304.500000,137.000000 
"/>
<path fill="none" opacity="1.000000" stroke="#000000" stroke-linecap="round" stroke-linejoin="round" stroke-width="6.000000"
	d="
M270.500000,248.000000 
	C267.527405,248.694077 267.278961,252.112289 264.473663,253.009598 
	C266.158630,256.043182 266.706360,258.663727 266.548767,261.502716 
	C266.424408,263.743073 266.443237,266.175293 269.500000,266.750000 
"/>
<path fill="none" opacity="1.000000" stroke="#000000" stroke-linecap="round" stroke-linejoin="round" stroke-width="3.000000"
	d="
M503.500000,170.500000 
	C506.450134,174.012589 509.286896,177.665222 514.000000,179.000000 
"/>
<path fill="none" opacity="1.000000" stroke="#000000" stroke-linecap="round" stroke-linejoin="round" stroke-width="3.000000"
	d="
M79.500000,163.000000 
	C75.780304,165.348480 71.834648,166.341232 67.500000,165.000000 
"/>
<path fill="none" opacity="1.000000" stroke="#000000" stroke-linecap="round" stroke-linejoin="round" stroke-width="8.000000"
	d="
M259.000000,181.500000 
	C262.914124,183.552246 267.347290,183.517349 271.523193,184.388947 
	C283.051544,186.795181 283.727325,186.200684 288.003326,174.501221 
	C288.311279,173.658600 288.666656,172.833328 289.000000,172.000000 
"/>
<path fill="none" opacity="1.000000" stroke="#000000" stroke-linecap="round" stroke-linejoin="round" stroke-width="3.000000"
	d="
M147.500000,156.500000 
	C143.582184,158.639023 139.485001,156.473511 135.500000,157.000000 
"/>
<path fill="none" opacity="1.000000" stroke="#000000" stroke-linecap="round" stroke-linejoin="round" stroke-width="4.000000"
	d="
M111.000000,253.500000 
	C108.542168,257.161560 108.214973,261.266998 108.500000,265.500000 
"/>
<path fill="none" opacity="1.000000" stroke="#000000" stroke-linecap="round" stroke-linejoin="round" stroke-width="4.000000"
	d="
M123.500000,160.500000 
	C120.320427,163.845688 116.389549,163.059204 112.500000,162.500000 
"/>
<path fill="none" opacity="1.000000" stroke="#000000" stroke-linecap="round" stroke-linejoin="round" stroke-width="4.000000"
	d="
M493.500000,179.500000 
	C496.515503,182.184128 501.217468,181.326630 504.000000,184.500000 
"/>
<path fill="none" opacity="1.000000" stroke="#000000" stroke-linecap="round" stroke-linejoin="round" stroke-width="4.000000"
	d="
M329.500000,157.500000 
	C327.451569,158.067322 326.083923,156.598221 325.080322,155.430939 
	C323.330627,153.395920 321.245453,153.430283 319.000000,153.500000 
"/>
<path fill="none" opacity="1.000000" stroke="#000000" stroke-linecap="round" stroke-linejoin="round" stroke-width="3.000000"
	d="
M556.000000,169.500000 
	C559.205017,172.148941 562.522095,174.692078 564.500000,178.500000 
"/>
<path fill="none" opacity="1.000000" stroke="#000000" stroke-linecap="round" stroke-linejoin="round" stroke-width="4.000000"
	d="
M213.500000,140.500000 
	C216.156738,142.396179 219.257126,143.966995 219.000000,148.000000 
"/>
<path fill="none" opacity="1.000000" stroke="#000000" stroke-linecap="round" stroke-linejoin="round" stroke-width="4.000000"
	d="
M101.000000,163.500000 
	C97.305954,163.147903 94.149971,165.620667 90.500000,165.500000 
"/>
<path fill="none" opacity="1.000000" stroke="#000000" stroke-linecap="round" stroke-linejoin="round" stroke-width="3.000000"
	d="
M443.500000,256.000000 
	C438.614624,257.289429 435.630035,260.460541 435.500000,264.500000 
"/>
<path fill="none" opacity="1.000000" stroke="#000000" stroke-linecap="round" stroke-linejoin="round" stroke-width="3.000000"
	d="
M266.000000,202.500000 
	C266.014252,204.553177 265.811829,206.642471 267.000000,208.500000 
"/>
<path fill="none" opacity="1.000000" stroke="#000000" stroke-linecap="round" stroke-linejoin="round" stroke-width="4.000000"
	d="
M266.500000,155.000000 
	C270.166656,156.064850 273.833344,155.554108 277.500000,155.000000 
"/>
</svg>